<svg xmlns="http://www.w3.org/2000/svg" width="400" height="400" viewBox="0 0 400 400"><defs><style>@import url(https://fonts.googleapis.com/css2?family=JetBrains+Mono:wght@700&amp;family=Syne:wght@800&amp;display=swap);</style><radialGradient id="bgGrad" cx="50%" cy="50%" r="55%"><stop offset="0%" stop-color="#0d1520"/><stop offset="100%" stop-color="#060a0f"/></radialGradient><radialGradient id="lensGlow" cx="50%" cy="50%" r="50%"><stop offset="0%" stop-color="#00d4ff" stop-opacity=".18"/><stop offset="100%" stop-color="#00d4ff" stop-opacity="0"/></radialGradient><radialGradient id="lensInner" cx="40%" cy="38%" r="60%"><stop offset="0%" stop-color="#0a2535"/><stop offset="100%" stop-color="#060e15"/></radialGradient><filter id="glow" width="160%" height="160%" x="-30%" y="-30%"><feGaussianBlur result="blur" stdDeviation="4"/><feMerge><feMergeNode in="blur"/><feMergeNode in="SourceGraphic"/></feMerge></filter><filter id="softGlow" width="200%" height="200%" x="-50%" y="-50%"><feGaussianBlur result="blur" stdDeviation="8"/><feMerge><feMergeNode in="blur"/><feMergeNode in="SourceGraphic"/></feMerge></filter><clipPath id="lensClip"><circle cx="185" cy="185" r="96"/></clipPath></defs><rect width="400" height="400" fill="url(#bgGrad)" rx="32"/><g stroke="#0d2030" stroke-width="1" opacity=".6"><line x1="0" x2="400" y1="80" y2="80"/><line x1="0" x2="400" y1="160" y2="160"/><line x1="0" x2="400" y1="240" y2="240"/><line x1="0" x2="400" y1="320" y2="320"/><line x1="80" x2="80" y1="0" y2="400"/><line x1="160" x2="160" y1="0" y2="400"/><line x1="240" x2="240" y1="0" y2="400"/><line x1="320" x2="320" y1="0" y2="400"/></g><circle cx="185" cy="185" r="115" fill="url(#lensGlow)"/><circle cx="185" cy="185" r="112" fill="none" stroke="#00d4ff" stroke-dasharray="6 4" stroke-opacity=".3" stroke-width="1"/><circle cx="185" cy="185" r="100" fill="none" stroke="#00d4ff" stroke-opacity=".9" stroke-width="2.5" filter="url(#glow)"/><circle cx="185" cy="185" r="97" fill="url(#lensInner)"/><circle cx="185" cy="185" r="72" fill="none" stroke="#00d4ff" stroke-opacity=".25" stroke-width="1"/><g clip-path="url(#lensClip)" opacity=".07"><line x1="88" x2="282" y1="150" y2="150" stroke="#00d4ff" stroke-width="1"/><line x1="88" x2="282" y1="162" y2="162" stroke="#00d4ff" stroke-width="1"/><line x1="88" x2="282" y1="174" y2="174" stroke="#00d4ff" stroke-width="1"/><line x1="88" x2="282" y1="186" y2="186" stroke="#00d4ff" stroke-width="1"/><line x1="88" x2="282" y1="198" y2="198" stroke="#00d4ff" stroke-width="1"/><line x1="88" x2="282" y1="210" y2="210" stroke="#00d4ff" stroke-width="1"/><line x1="88" x2="282" y1="222" y2="222" stroke="#00d4ff" stroke-width="1"/></g><g clip-path="url(#lensClip)"><line x1="88" x2="282" y1="185" y2="185" stroke="#00d4ff" stroke-opacity=".5" stroke-width="1.5"/></g><g stroke="#00d4ff" stroke-opacity=".35" stroke-width="1"><line x1="88" x2="120" y1="185" y2="185"/><line x1="250" x2="282" y1="185" y2="185"/><line x1="185" x2="185" y1="88" y2="120"/><line x1="185" x2="185" y1="250" y2="282"/></g><g stroke="#00d4ff" stroke-opacity=".6" stroke-width="2"><line x1="185" x2="185" y1="83" y2="76"/><line x1="185" x2="185" y1="287" y2="294"/><line x1="83" x2="76" y1="185" y2="185"/><line x1="287" x2="294" y1="185" y2="185"/></g><path fill="none" stroke="#00d4ff" stroke-opacity=".9" stroke-width="2" d="M185 138 C174 155, 162 168, 162 182 C162 199, 172 212, 185 212 C198 212, 208 199, 208 182 C208 168, 196 155, 185 138 Z" filter="url(#glow)"/><path fill="#00d4ff" fill-opacity=".1" d="M185 140 C175 156, 164 169, 164 182 C164 198, 173 210, 185 210 C197 210, 206 198, 206 182 C206 169, 195 156, 185 140 Z"/><ellipse cx="179" cy="175" fill="#00d4ff" fill-opacity=".25" rx="4" ry="7" transform="rotate(-15 179 175)"/><line x1="262" x2="308" y1="262" y2="315" stroke="#00d4ff" stroke-linecap="round" stroke-opacity=".85" stroke-width="10" filter="url(#glow)"/><line x1="262" x2="308" y1="262" y2="315" stroke="#001820" stroke-linecap="round" stroke-width="4" opacity=".4"/><g fill="none" stroke="#00d4ff" stroke-opacity=".4" stroke-width="1.5"><polyline points="24 24 24 44 44 44"/><polyline points="376 24 376 44 356 44"/><polyline points="24 376 24 356 44 356"/><polyline points="376 376 376 356 356 356"/></g><text x="200" y="358" fill="#eaf2ff" dominant-baseline="auto" font-family="'Syne', 'Arial Black', sans-serif" font-size="32" font-weight="800" letter-spacing="6" text-anchor="middle">LEAKLENS</text><text x="200" y="378" fill="#00d4ff" fill-opacity=".7" font-family="'JetBrains Mono', 'Courier New', monospace" font-size="10" font-weight="400" letter-spacing="3" text-anchor="middle">CREDENTIAL EXPOSURE SCANNER</text></svg>