<svg xmlns="http://www.w3.org/2000/svg" width="1280" height="640" viewBox="0 0 1280 640"><defs><style>@import url(https://fonts.googleapis.com/css2?family=JetBrains+Mono:wght@400;700&amp;family=Syne:wght@700;800&amp;display=swap);</style><radialGradient id="bgLeft" cx="20%" cy="50%" r="60%"><stop offset="0%" stop-color="#0d1e2e"/><stop offset="100%" stop-color="#060a0f"/></radialGradient><radialGradient id="glowCenter" cx="50%" cy="50%" r="50%"><stop offset="0%" stop-color="#00d4ff" stop-opacity=".07"/><stop offset="100%" stop-color="#00d4ff" stop-opacity="0"/></radialGradient><radialGradient id="lensGrad" cx="38%" cy="36%" r="65%"><stop offset="0%" stop-color="#0b2233"/><stop offset="100%" stop-color="#060e16"/></radialGradient><radialGradient id="lensHalo" cx="50%" cy="50%" r="50%"><stop offset="0%" stop-color="#00d4ff" stop-opacity=".15"/><stop offset="100%" stop-color="#00d4ff" stop-opacity="0"/></radialGradient><filter id="glow"><feGaussianBlur result="b" stdDeviation="3"/><feMerge><feMergeNode in="b"/><feMergeNode in="SourceGraphic"/></feMerge></filter><filter id="glowStrong"><feGaussianBlur result="b" stdDeviation="6"/><feMerge><feMergeNode in="b"/><feMergeNode in="SourceGraphic"/></feMerge></filter><clipPath id="lc"><circle cx="920" cy="320" r="195"/></clipPath><filter id="noise"><feTurbulence baseFrequency=".65" numOctaves="3" stitchTiles="stitch" type="fractalNoise"/><feColorMatrix type="saturate" values="0"/><feBlend in="SourceGraphic" mode="overlay" result="blend"/><feComposite in="blend" in2="SourceGraphic" operator="in"/></filter></defs><rect width="1280" height="640" fill="url(#bgLeft)"/><rect width="1280" height="640" fill="#060a0f" filter="url(#noise)" opacity=".3"/><ellipse cx="640" cy="320" fill="url(#glowCenter)" rx="700" ry="400"/><g stroke="#0c1e2c" stroke-width="1"><line x1="0" x2="1280" y1="80" y2="80"/><line x1="0" x2="1280" y1="160" y2="160"/><line x1="0" x2="1280" y1="240" y2="240"/><line x1="0" x2="1280" y1="320" y2="320"/><line x1="0" x2="1280" y1="400" y2="400"/><line x1="0" x2="1280" y1="480" y2="480"/><line x1="0" x2="1280" y1="560" y2="560"/><line x1="160" x2="160" y1="0" y2="640"/><line x1="320" x2="320" y1="0" y2="640"/><line x1="480" x2="480" y1="0" y2="640"/><line x1="640" x2="640" y1="0" y2="640"/><line x1="800" x2="800" y1="0" y2="640"/><line x1="960" x2="960" y1="0" y2="640"/><line x1="1120" x2="1120" y1="0" y2="640"/></g><line x1="80" x2="80" y1="0" y2="640" stroke="#00d4ff" stroke-opacity=".12" stroke-width="1"/><line x1="0" x2="1280" y1="2" y2="2" stroke="#00d4ff" stroke-opacity=".4" stroke-width="2"/><line x1="0" x2="1280" y1="638" y2="638" stroke="#00d4ff" stroke-opacity=".4" stroke-width="2"/><line x1="530" x2="680" y1="0" y2="640" stroke="#00d4ff" stroke-opacity=".06" stroke-width="1"/><line x1="560" x2="710" y1="0" y2="640" stroke="#00d4ff" stroke-opacity=".04" stroke-width="1"/><circle cx="920" cy="320" r="230" fill="url(#lensHalo)"/><circle cx="920" cy="320" r="222" fill="none" stroke="#00d4ff" stroke-dasharray="8 5" stroke-opacity=".2" stroke-width="1"/><circle cx="920" cy="320" r="198" fill="none" stroke="#00d4ff" stroke-opacity=".9" stroke-width="2.5" filter="url(#glow)"/><circle cx="920" cy="320" r="195" fill="url(#lensGrad)"/><circle cx="920" cy="320" r="148" fill="none" stroke="#00d4ff" stroke-opacity=".2" stroke-width="1"/><g clip-path="url(#lc)" opacity=".06"><line x1="724" x2="1116" y1="260" y2="260" stroke="#00d4ff" stroke-width="1.5"/><line x1="724" x2="1116" y1="280" y2="280" stroke="#00d4ff" stroke-width="1.5"/><line x1="724" x2="1116" y1="300" y2="300" stroke="#00d4ff" stroke-width="1.5"/><line x1="724" x2="1116" y1="320" y2="320" stroke="#00d4ff" stroke-width="1.5"/><line x1="724" x2="1116" y1="340" y2="340" stroke="#00d4ff" stroke-width="1.5"/><line x1="724" x2="1116" y1="360" y2="360" stroke="#00d4ff" stroke-width="1.5"/><line x1="724" x2="1116" y1="380" y2="380" stroke="#00d4ff" stroke-width="1.5"/></g><g clip-path="url(#lc)"><line x1="724" x2="1116" y1="320" y2="320" stroke="#00d4ff" stroke-opacity=".45" stroke-width="2"/></g><g stroke="#00d4ff" stroke-opacity=".4" stroke-width="1.5"><line x1="724" x2="790" y1="320" y2="320"/><line x1="1050" x2="1116" y1="320" y2="320"/><line x1="920" x2="920" y1="124" y2="190"/><line x1="920" x2="920" y1="450" y2="516"/></g><g stroke="#00d4ff" stroke-opacity=".7" stroke-width="2.5"><line x1="920" x2="920" y1="118" y2="108"/><line x1="920" x2="920" y1="522" y2="532"/><line x1="718" x2="708" y1="320" y2="320"/><line x1="1122" x2="1132" y1="320" y2="320"/></g><path fill="none" stroke="#00d4ff" stroke-opacity=".9" stroke-width="2.5" d="M920 252 C902 276, 880 296, 880 318 C880 344, 898 364, 920 364 C942 364, 960 344, 960 318 C960 296, 938 276, 920 252 Z" filter="url(#glow)"/><path fill="#00d4ff" fill-opacity=".09" d="M920 255 C903 278, 883 297, 883 318 C883 342, 900 361, 920 361 C940 361, 957 342, 957 318 C957 297, 937 278, 920 255 Z"/><ellipse cx="909" cy="308" fill="#00d4ff" fill-opacity=".22" rx="7" ry="12" transform="rotate(-15 909 308)"/><line x1="1083" x2="1148" y1="483" y2="558" stroke="#00d4ff" stroke-linecap="round" stroke-opacity=".85" stroke-width="18" filter="url(#glow)"/><line x1="1083" x2="1148" y1="483" y2="558" stroke="#000d16" stroke-linecap="round" stroke-width="7" opacity=".5"/><text x="110" y="226" fill="#00d4ff" fill-opacity=".7" font-family="'JetBrains Mono', 'Courier New', monospace" font-size="13" letter-spacing="5">// OPEN SOURCE</text><text x="106" y="322" fill="#eaf2ff" font-family="'Syne', 'Arial Black', sans-serif" font-size="96" font-weight="800" letter-spacing="-1">LEAK</text><text x="388" y="322" fill="#00d4ff" filter="url(#glowStrong)" font-family="'Syne', 'Arial Black', sans-serif" font-size="96" font-weight="800" letter-spacing="-1">LENS</text><line x1="106" x2="560" y1="336" y2="336" stroke="#00d4ff" stroke-opacity=".35" stroke-width="2"/><text x="108" y="378" fill="#7a9ab5" font-family="'JetBrains Mono', 'Courier New', monospace" font-size="16" letter-spacing="2">CREDENTIAL EXPOSURE SCANNER</text><g font-family="'JetBrains Mono', 'Courier New', monospace" font-size="12" letter-spacing="1"><rect width="148" height="28" x="108" y="418" fill="#00d4ff" fill-opacity=".07" stroke="#00d4ff" stroke-opacity=".3" stroke-width="1" rx="4"/><text x="122" y="436" fill="#00d4ff" fill-opacity=".85">Real-time scan</text><rect width="138" height="28" x="266" y="418" fill="#00d4ff" fill-opacity=".07" stroke="#00d4ff" stroke-opacity=".3" stroke-width="1" rx="4"/><text x="280" y="436" fill="#00d4ff" fill-opacity=".85">16+ patterns</text><rect width="128" height="28" x="414" y="418" fill="#00d4ff" fill-opacity=".07" stroke="#00d4ff" stroke-opacity=".3" stroke-width="1" rx="4"/><text x="428" y="436" fill="#00d4ff" fill-opacity=".85">Browser UI</text></g><text x="108" y="540" fill="#3a5570" font-family="'JetBrains Mono', 'Courier New', monospace" font-size="13" letter-spacing="2">github.com / LeakLens</text><g fill="none" stroke="#00d4ff" stroke-opacity=".35" stroke-width="1.5"><polyline points="20 20 20 50 50 50"/><polyline points="1260 20 1260 50 1230 50"/><polyline points="20 620 20 590 50 590"/><polyline points="1260 620 1260 590 1230 590"/></g><text x="1250" y="36" fill="#00d4ff" fill-opacity=".4" font-family="'JetBrains Mono', 'Courier New', monospace" font-size="11" text-anchor="end">v1.0.0</text></svg>